<?xml version="1.0" encoding="UTF-8"?>
<svg id="Layer_1" xmlns="http://www.w3.org/2000/svg" version="1.1" viewBox="0 0 1404 828">
  <!-- Generator: Adobe Illustrator 29.5.1, SVG Export Plug-In . SVG Version: 2.1.0 Build 141)  -->
  <defs>
    <style>
      .st0 {
        fill: #fefcf6;
      }

      .st1 {
        fill: #f5b143;
      }

      .st2 {
        fill: #34a29b;
      }

      .st3 {
        fill: #1d5a5f;
      }

      .st4 {
        fill: #f3b143;
      }

      .st5 {
        fill: #1e595e;
      }
    </style>
  </defs>
  <path class="st3" d="M991.3,280.81c1.52,2.28.93,11.97.76,15.11-.25,4.72-1.44,10-1.72,14.44-7.09,114.36-14.41,228.52-21.93,342.73-.63,9.58-.79,19.92-1.74,29.41-.48,4.83-4.62,10-8.43,12.89-5.88,4.47-16.65,9.07-23.56,11.1-23.78,7.01-51.16,8.22-76.79,7.48-23.68-.69-52.64-4.2-73.11-14.61-6.78-3.45-13.95-7.99-15.29-16.42-2.76-17.38-1.99-38.39-3.08-56.35-6.76-111.2-13.94-222.4-21.28-333.57-.54-8.2.08-15.69,10.07-15.88h229.11c2.47-.11,5.69,1.7,7,3.66ZM977.64,292.17h-218.1l7.5,109.05h203.1l7.5-109.05ZM969.57,415.65h-201.95c.47,5.8.2,11.81.58,17.59,3.45,52.67,7.18,105.41,10.37,158.11.63,10.4.32,21.42,1.17,31.72.23,2.78.94,10.63,2.58,12.42.44.48,5.19,4.12,5.69,4.4,26.42,15.12,75.25,16,105.68,13.47,15.52-1.29,32.97-3.78,46.88-10.22,1.77-.82,4.95-2.95,6.72-3.97,2.79-1.6,5-3.1,7.57-4.84.3-1.42.71-2.9.85-4.35,1.36-14.79,1.95-29.95,2.92-44.97,1.21-18.84,2.8-38.23,4.02-57.14,2.04-31.66,3.49-63.27,5.74-94.65.42-5.84,1.11-11.71,1.18-17.57ZM950.75,682.43c.32-.39,1-.43,1.37-1.2,1.42-2.95.43-8.59.71-12.01.13-1.53,1.01-2.78,1.11-4.08.34-4.47-.03-9.05.62-13.51-1.32.67-2.83,1.1-4.13,1.79-29.01,15.25-73.43,16.88-106.35,14.36-18.9-1.45-41.09-4.27-58.18-12.82-1.06-.53-1.95-2.81-4.43-2.17,1.1,7.4.47,15.32,1.22,22.72.19,1.89,1.69,7.04,2.98,8.27.37.36,1.34.26,1.88.72,2.82,2.37,2.76,1.97,6.19,3.5,15.74,7.01,35.33,10.41,53.19,11.55,8.68.55,18.34,1.1,26.54-.05,12.21-1.72,23.53.03,36.48-2.85,11.23-2.49,20.59-2.21,31.51-7.52,2.42-1.18,7.55-4.58,9.29-6.7Z"/>
  <path class="st2" d="M969.57,415.65c-.07,5.87-.76,11.73-1.18,17.57-2.25,31.39-3.7,62.99-5.74,94.65-1.22,18.91-2.81,38.3-4.02,57.14-.97,15.02-1.56,30.18-2.92,44.97-.13,1.44-.55,2.93-.85,4.35-2.57,1.74-4.78,3.24-7.57,4.84-1.77,1.02-4.96,3.15-6.72,3.97-13.91,6.44-31.37,8.93-46.88,10.22-30.42,2.54-79.26,1.65-105.68-13.47-.49-.28-5.24-3.92-5.69-4.4-1.64-1.79-2.35-9.64-2.58-12.42-.85-10.3-.53-21.33-1.17-31.72-3.2-52.7-6.92-105.43-10.37-158.11-.38-5.78-.12-11.79-.58-17.59h201.95Z"/>
  <polygon class="st0" points="977.64 292.17 970.14 401.22 767.04 401.22 759.54 292.17 977.64 292.17"/>
  <path class="st0" d="M950.75,682.43c-1.74,2.12-6.87,5.52-9.29,6.7-10.91,5.31-20.27,5.03-31.51,7.52-12.95,2.87-24.27,1.13-36.48,2.85-8.19,1.15-17.85.61-26.54.05-17.86-1.14-37.45-4.54-53.19-11.55-3.43-1.53-3.38-1.13-6.19-3.5-.55-.46-1.51-.36-1.88-.72-1.29-1.23-2.79-6.38-2.98-8.27-.75-7.4-.12-15.32-1.22-22.72,2.48-.63,3.37,1.64,4.43,2.17,17.09,8.55,39.28,11.37,58.18,12.82,32.91,2.52,77.34.89,106.35-14.36,1.31-.69,2.81-1.12,4.13-1.79-.65,4.47-.28,9.04-.62,13.51-.1,1.3-.98,2.55-1.11,4.08-.28,3.41.71,9.05-.71,12.01-.37.77-1.05.81-1.37,1.2Z"/>
  <path class="st1" d="M561.64,554.7v54.53c0,2.29,1.25,8.89,2.14,11.11.25.63,1.03.66,1.27,1.17,4.77,9.99,10.36,15.53,20.35,20.37,17.35,8.41,27.3,4.59,45.09-.15,11.47-3.06,27.94-7.67,38.87.27.36.26,5.02,5.54,5.25,5.97.22.41,3,8.11,3,8.56v33.18h-189.25c.69-6.11-.07-13.4.57-19.33.28-2.55,2.1-7.24,4.49-8.32,2.23-1.01,5.13-.17,7.24-1.32.27-.15,3.8-3.34,3.9-3.62,1.69-4.94,1.21-14.53,1.72-20.16,2.16-23.8,4.06-47.83,6.82-71.65.4-3.46.03-7.14.64-10.61h47.89Z"/>
  <path class="st4" d="M602.31,544.89c.45.14.84.93.87,1.44.33,4.26.17,9.08.58,13.27.88,9.03,1.41,18.12,2.31,27.12,1.64,16.46,10.54,28.93,26.89,31.96,7.15,1.33,10.65,1.18,17.75,0,19.59-3.24,38.26-17.26,59.07-8.76.37.15,5.28,2.91,5.73,3.23,2.89,2.09,7.1,10.52,7.1,13.96v28.85c0,.06-.8.87-.87.87h-30.58c-1.62-2.73-1.22-6.74-2.19-9.92-5.61-18.45-29.98-25.81-47.27-22.23-17.48,3.63-36.12,15.16-53.94,4-5.96-3.73-11.89-12.48-12.79-19.52-2.18-16.99,1.33-38.36-.04-55.92-.24-3.05-1.06-5.62-2.33-8.35h29.71Z"/>
  <path class="st5" d="M332.86,278.9c-1.38-.43-.9-3.32-.42-4.47s3.67-3.64,4.79-4.44c10.93-7.8,30.14-10.91,43.46-8.91,4.23.63,8.18,2.52,12.47,2.81-3.37-7.06-9.93-12.01-16.02-16.7-.98-.76-5.05-1.99-3.89-4.08.09-.16,2.5-2.15,2.87-2.29,10.14-3.93,27.32,1.97,36.81,5.91l10.81,6.78c.23-.24-2.38-5.53-2.76-6.18-2.16-3.7-7.05-7.14-5.91-11.9.52-2.16,13.58-.47,15.99.1,19.19,4.54,36.43,20.21,41.68,39.68.89,3.3.93,8.6,1.92,11.35.87,2.4,9.04,1.85,11.69,2.16,9.84,1.15,17.87,3.34,26.99,7.06,1.22.5,1.92,2.22,3.88,1.6,1.34-7.97,4.29-15.95,8.76-22.69,18.96-28.58,57.91-31.3,82.69-7.89,5.3,5.01,9.18,11.33,13.27,17.3l96.4-80.73-5.52-11.19c-1.07-1.88-2.59,1.47-3.17,1.95-6.2,5.18-15.64,15.06-22.37,18.45-.36.18-.36,1.02-.83,1.12-2.62.59-5.79,0-7.71-1.99-1.93-3.51-10.82-9.15-11.83-12.39-2.27-7.33,3.5-10.04,7.86-14.15,6.7-6.31,14.69-12.44,21.08-19.31.35-.38.86-.62,1.38-.63-1.86-2.42-4.67-4.37-6.72-6.54-6.44-6.82-12.64-13.9-18.86-20.95-2.13-2.41-5.71-5.11-7.52-7.77-3.54-5.17-3.06-7.9.42-13.02.64-.94,3.41-3.4,4.33-4.59,17.41-22.31,46.74-49.94,70.25-64.76.39-.24,5.49-2.21,5.88-2.29,2.01-.38,8.32,4.15,10.07,5.66,8.7,7.56,16.46,16.27,24.88,24.04,2.83,2.61,6.07,4.92,8.83,7.65,5.08-4.57,10.53-8.81,15.58-13.42,2.95-2.7,5.81-5.51,8.79-8.23,3.91-3.56,11.63-13.12,17.1-12.98.31,0,4.42,2.85,5.27,3.15,3.48,4.83,13.69,10.91,11.61,17.86-.06.2-2.05,3.42-2.21,3.55-7.78,6.64-15.27,13.52-22.75,20.5-.76.71-7.38,5.21-6.06,6.36,1.13-.03,2.26-.03,3.34.4,11.61,4.6,23.15,11.6,31.25,21.98,11.92,15.28,15.9,33.38,15.32,52.63,4.38,4.07,8.97,8.28,13.86,11.55,14.06,13.11,29.3,24.79,43.67,37.5,3.91,3.46,11.51,9.24,13.64,13.64,9.05,18.63-9.89,36.01-28.23,28.79-1.21-.48-1.08-1.23-1.84-1.62-10.2-5.2-20.03-11.48-30.01-17.3-12.52-7.3-25.09-14.63-37.7-21.77-2.74-.24-6.52,3.92-8.93,5.43-23.45,14.74-46.18,17.18-71.95,7.89-2.41-.87-4.66-1.72-7.18-.62l-5.1,4.86c-38.52,30.38-75.46,61.38-113.46,92.21-1.1,5.71-.67,11.58-1.38,17.38-5.14,41.59-27.78,80.09-54.11,110.96l6.54,33.66c2.96,10.27,3.82,21.44,7.09,31.57.49,1.52-.59,3.19,1.58,3.61,5.04.97,10.64-1.73,16.57.16,6.71,2.14,7.24,8.88,7.94,15.14,1.49,13.33,1.24,26.97,2.97,40.31,2.17,16.71,16.32,20.69,31.31,17.61,9.43-1.94,19.09-7.36,28.51-9.57,20.9-4.91,49.09.41,55.25,24.03,1.69,6.49,1.67,35.66.76,42.95-.13,1.08-.43,2.2-.83,3.21-1.78,1.04-3.53,4.07-5.74,4.07h-38.08c-.06,0-.87.8-.87.87v27.12c0,3-5.48,4.06-7.18,5.53h-199.14c-3.25-.82-7.32-1.95-8.2-5.66-.96-4.07-.11-7.15-.11-10.81,0-11.5-1.76-30.53,10.51-36.83,2.41-1.24,5.1-.88,6.75-3.14.33-8.2.52-16.49,1.19-24.67,1.41-17.26,2.96-34.72,4.62-51.93.6-6.18.62-14.97,1.86-20.64.21-.98,2.02-5.72,2.62-6.19,2.62-2.04,10.11-2.42,13.4-2.32.33-.34-.46-8.2-.64-9.46-2.65-18.57-5.52-37.33-7.44-56.03-2.29-22.33,8.39-32.68,16.44-51.64,9.44-22.21,14.85-47.17,8.18-71.07l-2.12-3.93c-1.65,6.74-3.76,13.38-6.5,19.75-21.47,49.94-77.64,95.5-135.18,93.36-26.32-.98-51.48-17.94-55-44.81-5.08-38.76,22-77.57,51.12-99.86.49-.38,1.05,0,.73-1.33-2.67.45-5.26-.47-7.76-.6-18.31-.94-35.7,1.87-53.29,6.19-2.34.58-5.13,2.68-8.1,1.83-1.34-2.58.36-5.36,1.67-7.56,7.32-12.32,23.87-24.21,37.08-29.4,2.35-.92,5-1.12,7.32-2.21l-7.76-3.47c-2.14,0-8.65-2.29-9.83-2.29-2.58,0-11.01.52-12.69,0ZM771.28,89.45c-7.11-6.87-14.37-14.84-21.6-21.38-.74-.67-3.56-3.15-4.16-3.39-2.69-1.09-3.21,1.14-4.5,2.12-19.85,15.08-36.88,30.05-53.87,49.43-1.44,1.65-6.87,5.7-6.02,8.23l28.22,28.96c2.15,1.25,5.28-3.76,6.62-4.93,15.24-13.41,31.13-27.16,46.18-40.94,3.76-3.45,10.21-8.59,13.23-12.17,2.37-2.8-.07-2.02-.99-2.8-.76-.64-2.14-2.21-3.1-3.13ZM807.27,111.77c-6.3-1.59-6.34.7-10.58,4.33-23.22,19.92-46.73,40.92-69.19,61.25-.9.81-2.54,2.77-3.17,3.77-.18,1.73,3.89,7.5,4.95,9.47.89,1.67,1.95,3.3,2.73,4.8,1.14,2.19,4.59,8.39,4.35,10.36-.09.72-.46,1.5-.81,2.14-31.72,27.08-63.62,52.39-95.17,79.08-4.26,3.6-8.43,7.37-12.68,10.97-1.01,1.43.5,2.5.81,3.81,1.14,4.82,2.02,9.79,2.94,14.66,2.34-.02,3.58-2.25,4.99-3.35,35.75-27.9,69.4-57.73,104.47-85.1,1.17-.92,3.24-3.38,4.58-4.36,3.47-2.55,6.08-4.33,10.61-3.26,1.9.45,2.08,1.73,3.02,2.19,21.99,10.8,46.03,8.8,65.56-5.7,2.76-2.05,7.1-7.54,9.88-8.58,3.74-1.41,5.7-.6,9.07,1.27,3.06,1.69,7.19,5.21,10.37,7.09,14.23,8.4,28.08,16.25,42.22,24.59,4.67,2.75,15.53,10.81,20.51,11.22,3.44.28,6.31-.07,7.11-3.91,1.17-5.62-2.52-7.57-6.25-10.81-19.11-16.6-41.67-32.84-60.38-50.11-.79-.73-5.33-5.18-5.62-5.63-1.96-2.97-.47-18.54-.91-23.33-2.21-24.04-22.16-41.48-43.43-46.84ZM403.54,256.97c1.55,5.18,4.84,10.43,5.74,15.9s-.48,8.87-6.54,8.27c-3.11-.3-5.47-2.07-8.17-2.8-8.36-2.24-16.94-3.94-25.64-3.49,1.3,1.69,4.17,2.51,5.73,3.78.76.62,5.1,4.93,5.63,5.62,1.15,1.5,3.14,5.17,1.96,6.94-.85,1.27-13.77,3.87-16.21,4.71-3.86,1.32-9.49,3.91-13.19,5.85-1,.52-2.81,1.65-3.53,2.52,10.03-.94,20.21-1.67,30.32-1.17,7.75.38,15.34,2.24,23.05,2.9,13.81-7.34,29.13-13.21,44.6-15.99,2.45-.44,11.64-.87,12.85-1.58.72-.43.41-.89.32-1.48-2.1-13.92-8.9-27.63-21.4-34.62-.55-.31-2.87-1.48-3.18-1.14,1.04,6.4,3.46,11.4,2.9,18.19-.23,2.78-.54,5.5-3.81,6.01-4.67.72-7.53-3.72-10.94-6.33-5.54-4.24-13.3-10.43-20.47-12.1-.09-.29.08-.79,0-1.15-1.2-.16-1.31-.05-1.15,1.15.37.07.83-.07,1.15,0ZM594.71,274.09c-36.14-27.53-77.68,12.13-59.78,51.98,1.73,3.86,5.01,8.47,6.92,12.72,14.4,31.99,6.54,69.35-8.39,99.76-6.42,13.08-11.77,16.54-11.06,32.78.63,14.31,3.63,30.15,5.14,44.48.75,7.07.39,16.27,1.82,22.99.69,3.22,4.16,3.34,7.07,2.67,1.32-.31.84-5.3,1.03-6.59,1.54-10.36,3.22-20.9,4.5-31.27.61-4.91,1.28-23.1,3.22-26.21.18-.29,4.45-3.31,5.31-4.21,38.25-40.33,79.18-104.49,65.07-163.11-3.36-13.97-9.5-27.33-20.86-35.98ZM366.61,357.37h146.84c.81-1.38,1.95-3.62,2.41-5.09,2.37-7.49,3.82-15.66,4.82-23.5l-4.39-16.38c-8.66-5.32-19.33-7.98-29.39-9.27-32.81-4.22-68.83,6.46-94.02,26.54-8.11,6.47-14.77,13.4-21.65,21.07l-4.63,6.62ZM507.98,370.06h-150.02c-1.96,5.63-5.39,10.36-6.4,16.28-16.81,50.99,25.4,71.12,70.34,57.76,35.35-10.51,66.41-37.67,83.65-69.25.86-1.58,2.77-2.63,2.43-4.78ZM566.24,476.23c-2.65-.14-2.98,2.64-4.23,3.84-1.34,1.29-4.56,2.67-4.4,4.43l12.55,46.38c1.3,2.48,5.26.9,7.63,1.31l-11.55-55.97ZM553.55,514.89c-1.24-1.21-1.57,3.23-1.65,3.82-1.07,7.71-.82,15.65-2.37,23.29,3.52,1.08,3.3-5,5.15-7.1.68-.77,2.48-.48,2.84-1.94-.92-2.29-3.3-17.42-3.96-18.07ZM602.31,544.89h-29.71c1.27,2.73,2.09,5.29,2.33,8.35,1.38,17.56-2.14,38.93.04,55.92.9,7.03,6.84,15.79,12.79,19.52,17.82,11.15,36.46-.38,53.94-4,17.29-3.59,41.66,3.78,47.27,22.23.97,3.18.57,7.2,2.19,9.92h30.58c.06,0,.87-.8.87-.87v-28.85c0-3.44-4.21-11.86-7.1-13.96-.45-.32-5.37-3.08-5.73-3.23-20.81-8.5-39.48,5.51-59.07,8.76-7.1,1.18-10.6,1.33-17.75,0-16.35-3.04-25.25-15.5-26.89-31.96-.9-9-1.43-18.09-2.31-27.12-.41-4.18-.26-9.01-.58-13.27-.03-.51-.42-1.3-.87-1.44ZM561.64,554.7h-47.89c-.61,3.47-.24,7.15-.64,10.61-2.76,23.82-4.66,47.85-6.82,71.65-.51,5.63-.03,15.22-1.72,20.16-.1.28-3.63,3.47-3.9,3.62-2.11,1.15-5.01.31-7.24,1.32-2.4,1.08-4.22,5.78-4.49,8.32-.65,5.93.12,13.22-.57,19.33h189.25v-33.18c0-.45-2.78-8.16-3-8.56-.23-.43-4.89-5.71-5.25-5.97-10.93-7.95-27.39-3.34-38.87-.27-17.78,4.75-27.74,8.56-45.09.15-10-4.85-15.59-10.39-20.35-20.37-.25-.52-1.02-.54-1.27-1.17-.9-2.23-2.14-8.82-2.14-11.11v-54.53Z"/>
  <path class="st4" d="M594.71,274.09c11.36,8.65,17.5,22.01,20.86,35.98,14.11,58.62-26.82,122.78-65.07,163.11-.85.9-5.12,3.92-5.31,4.21-1.94,3.11-2.61,21.3-3.22,26.21-1.28,10.38-2.96,20.91-4.5,31.27-.19,1.29.29,6.28-1.03,6.59-2.92.67-6.38.55-7.07-2.67-1.44-6.72-1.08-15.92-1.82-22.99-1.51-14.33-4.52-30.17-5.14-44.48-.71-16.24,4.64-19.7,11.06-32.78,14.93-30.4,22.78-67.77,8.39-99.76-1.91-4.25-5.19-8.86-6.92-12.72-17.9-39.84,23.64-79.51,59.78-51.98ZM585.62,303.68c0-9.52-7.72-17.24-17.24-17.24s-17.24,7.72-17.24,17.24,7.72,17.24,17.24,17.24,17.24-7.72,17.24-17.24Z"/>
  <path class="st4" d="M566.24,476.23l11.55,55.97c-2.37-.42-6.33,1.17-7.63-1.31l-12.55-46.38c-.16-1.76,3.06-3.14,4.4-4.43,1.25-1.21,1.57-3.98,4.23-3.84Z"/>
  <circle class="st5" cx="568.38" cy="303.68" r="17.24"/>
  <path class="st1" d="M507.98,370.06c.34,2.15-1.57,3.2-2.43,4.78-17.23,31.58-48.3,58.74-83.65,69.25-44.93,13.36-87.15-6.77-70.34-57.76,1.01-5.91,4.44-10.64,6.4-16.28h150.02Z"/>
  <path class="st1" d="M366.61,357.37l4.63-6.62c6.88-7.67,13.54-14.61,21.65-21.07,25.19-20.08,61.21-30.77,94.02-26.54,10.05,1.29,20.73,3.95,29.39,9.27l4.39,16.38c-1,7.84-2.45,16.01-4.82,23.5-.47,1.47-1.6,3.71-2.41,5.09h-146.84Z"/>
  <path class="st2" d="M403.54,256.97c7.17,1.67,14.94,7.86,20.47,12.1,3.4,2.61,6.26,7.05,10.94,6.33,3.27-.5,3.58-3.22,3.81-6.01.56-6.79-1.86-11.79-2.9-18.19.31-.34,2.63.83,3.18,1.14,12.5,6.99,19.3,20.7,21.4,34.62.09.59.4,1.05-.32,1.48-1.21.71-10.4,1.14-12.85,1.58-15.46,2.78-30.79,8.64-44.6,15.99-7.7-.66-15.3-2.52-23.05-2.9-10.11-.49-20.29.23-30.32,1.17.72-.87,2.54-2,3.53-2.52,3.7-1.94,9.33-4.53,13.19-5.85,2.45-.84,15.37-3.44,16.21-4.71,1.18-1.77-.81-5.44-1.96-6.94-.53-.69-4.87-5-5.63-5.62-1.56-1.27-4.43-2.09-5.73-3.78,8.71-.45,17.29,1.24,25.64,3.49,2.7.73,5.07,2.49,8.17,2.8,6.06.59,7.45-2.72,6.54-8.27s-4.19-10.72-5.74-15.9c-.32-.08-.78.07-1.15,0-.16-1.2-.05-1.31,1.15-1.15.08.36-.09.86,0,1.15Z"/>
  <path class="st4" d="M807.27,111.77c21.27,5.37,41.22,22.8,43.43,46.84.44,4.79-1.05,20.36.91,23.33.29.44,4.83,4.9,5.62,5.63,18.71,17.27,41.27,33.51,60.38,50.11,3.73,3.24,7.42,5.19,6.25,10.81-.8,3.84-3.67,4.19-7.11,3.91-4.99-.41-15.84-8.46-20.51-11.22-14.15-8.34-28-16.2-42.22-24.59-3.18-1.88-7.31-5.39-10.37-7.09-3.38-1.87-5.33-2.67-9.07-1.27-2.79,1.05-7.12,6.53-9.88,8.58-19.53,14.5-43.58,16.5-65.56,5.7-.93-.46-1.12-1.74-3.02-2.19-4.53-1.07-7.14.71-10.61,3.26-1.34.98-3.41,3.44-4.58,4.36-35.07,27.37-68.72,57.2-104.47,85.1-1.4,1.09-2.65,3.33-4.99,3.35-.92-4.86-1.81-9.84-2.94-14.66-.31-1.31-1.82-2.38-.81-3.81,4.25-3.6,8.42-7.36,12.68-10.97,31.54-26.69,63.45-52,95.17-79.08.35-.64.72-1.42.81-2.14.24-1.97-3.21-8.17-4.35-10.36-.78-1.5-1.84-3.13-2.73-4.8-1.06-1.98-5.13-7.74-4.95-9.47.62-1,2.27-2.96,3.17-3.77,22.46-20.33,45.97-41.33,69.19-61.25,4.24-3.63,4.28-5.92,10.58-4.33ZM825.09,169.71c0-9.42-7.64-17.06-17.06-17.06s-17.06,7.64-17.06,17.06,7.64,17.06,17.06,17.06,17.06-7.64,17.06-17.06Z"/>
  <path class="st2" d="M771.28,89.45c.95.92,2.34,2.48,3.1,3.13.92.78,3.36,0,.99,2.8-3.02,3.57-9.46,8.72-13.23,12.17-15.05,13.78-30.94,27.53-46.18,40.94-1.34,1.18-4.47,6.19-6.62,4.93l-28.22-28.96c-.85-2.54,4.58-6.59,6.02-8.23,16.99-19.38,34.02-34.35,53.87-49.43,1.29-.98,1.81-3.21,4.5-2.12.6.24,3.42,2.72,4.16,3.39,7.24,6.54,14.49,14.51,21.6,21.38Z"/>
  <circle class="st5" cx="808.03" cy="169.71" r="17.06"/>
</svg>